<svg viewBox="0 0 66 32" fill="white" xmlns="http://www.w3.org/2000/svg" class="is-inversed">
    <path
        d="M53.9036 20.5323L52.2118 17.2438C50.2427 18.4227 48.0569 19.1968 45.783 19.5205V19.8578L46.4597 19.7735C46.7031 20.33 46.7908 20.9419 46.7135 21.5442C46.7314 21.8559 46.7029 22.1684 46.6289 22.4717C46.6289 22.5561 46.4597 22.6404 46.2905 22.809C46.1214 22.9777 45.9522 23.062 45.9522 23.1463C46.2246 23.3075 46.4426 23.5461 46.5782 23.8315C46.7138 24.1169 46.7609 24.4362 46.7135 24.7484V25.5073C46.7221 25.6766 46.6967 25.8459 46.6385 26.0052C46.5804 26.1646 46.4909 26.3106 46.3751 26.4349C46.206 26.5192 45.8676 26.7721 45.8676 26.8565C47.4748 27.8683 48.6591 28.6272 49.2512 29.0488C49.9948 28.4758 50.7012 27.8561 51.3659 27.1937V30.9039C51.3659 31.5785 51.7043 31.9157 52.4656 31.9157C53.1423 31.9157 53.5653 31.5785 53.5653 30.9882C53.5778 30.9151 53.5741 30.84 53.5542 30.7685C53.5344 30.6969 53.499 30.6306 53.4506 30.5743C53.4021 30.5179 53.3418 30.4729 53.2739 30.4424C53.206 30.412 53.1322 30.3968 53.0577 30.398H52.8886C52.8276 30.376 52.7625 30.3674 52.6979 30.373C52.6332 30.3785 52.5706 30.398 52.5142 30.4301C52.4579 30.4622 52.4093 30.5061 52.3717 30.5588C52.334 30.6115 52.3084 30.6717 52.2964 30.7352C52.2118 30.9882 52.1273 31.1569 52.0427 31.1569C52.0082 31.1618 51.973 31.1587 51.94 31.1477C51.9069 31.1367 51.8769 31.1182 51.8523 31.0937C51.8276 31.0691 51.8091 31.0392 51.7981 31.0062C51.7871 30.9733 51.7839 30.9383 51.7889 30.9039V26.9408L52.8886 26.0132L52.7194 25.5073L51.7889 26.3505V21.9658L53.9036 20.5323ZM50.6046 27.0251L49.4204 26.1819V23.2306C50.0315 22.8968 50.6245 22.5309 51.1968 22.1345L51.2813 26.6035L50.6046 27.0251ZM49.505 22.7247V19.0146L49.7587 18.8459C50.347 19.6977 50.8566 20.6008 51.2813 21.5442L49.505 22.7247ZM23.5469 26.1819C23.2085 26.1819 23.0393 25.8446 23.0393 25.17C23.0294 24.8864 23.0579 24.6028 23.1239 24.3268C23.147 24.0931 23.2399 23.8717 23.3908 23.6912C23.5416 23.5108 23.7433 23.3797 23.9698 23.315C23.5393 23.1113 23.2055 22.7483 23.0393 22.3031V21.0383C23.0614 20.7721 23.1409 20.5137 23.2723 20.2809C23.4037 20.0481 23.5839 19.8462 23.8006 19.6891C23.216 19.1925 22.5938 18.7414 21.9396 18.34C21.37 17.8952 20.7443 17.5267 20.0787 17.2438C19.4026 17.6732 18.6593 17.9867 17.8793 18.1713C17.1206 18.3405 16.4023 18.6556 15.7646 19.0989C15.4423 19.3423 15.1877 19.6636 15.0249 20.0325C14.8621 20.4014 14.7964 20.8057 14.8341 21.2069C14.8291 21.5726 14.9484 21.9292 15.1724 22.2188C15.4262 22.6404 15.68 22.8934 16.0183 22.8934C16.2721 22.8934 17.118 22.1345 18.556 20.6167L18.3869 20.448L17.8793 20.701C17.118 20.448 16.7797 20.1107 16.7797 19.6891C16.807 19.4975 16.896 19.32 17.0333 19.1831C17.1706 19.0463 17.3488 18.9575 17.541 18.9302L20.0787 20.6167V21.1226L20.1633 22.5561C19.0757 23.1572 17.854 23.4761 16.6105 23.4836L14.4957 23.2306L14.4111 23.6522L14.9187 23.8209V26.3505L14.3265 26.6035C15.2781 27.3927 16.182 28.2374 17.0334 29.1331C18.0989 28.3219 19.1158 27.4491 20.0787 26.5192C20.0925 26.8307 20.0641 27.1427 19.9941 27.4467L22.1088 29.2175C22.5318 28.6272 22.9547 28.037 23.4623 27.4467C23.9591 26.9226 24.4118 26.3585 24.8157 25.7603L24.4773 25.423C24.139 25.9289 23.8852 26.1819 23.5469 26.1819ZM19.9095 25.676C19.2328 26.2662 18.8098 26.6035 18.6406 26.6035C18.556 26.6035 18.3023 26.4349 17.9639 26.0132V23.6522L19.9095 23.062C19.9799 23.6495 20.0081 24.2412 19.9941 24.8327C20.0079 25.1164 19.9794 25.4006 19.9095 25.676ZM65.8308 25.5073L65.7462 25.423C65.3644 25.8582 64.9393 26.2538 64.4774 26.6035C64.3681 26.6068 64.2605 26.5761 64.1696 26.5157C64.0786 26.4552 64.0088 26.368 63.9698 26.2662C63.8853 26.1819 63.8853 26.0976 63.8853 25.9289V23.7366C64.0544 23.4836 64.2236 23.315 64.3928 23.062C64.139 22.8934 63.8853 22.6404 63.8853 22.3874V20.701L64.8157 19.7735C64.2769 19.4856 63.767 19.1467 63.2931 18.7616C62.7856 18.34 62.3626 18.0027 61.8551 17.5811C60.9763 18.5987 59.9498 19.4798 58.8099 20.1951V19.4362L56.7797 17.6654C55.7646 18.9302 54.9187 19.9421 54.242 20.701L54.5804 21.0383C55.0879 20.5324 55.4263 20.2794 55.5954 20.2794C55.9338 20.2794 56.103 20.6167 56.103 21.2069V22.4717C56.0703 22.6354 55.9998 22.7893 55.897 22.921C55.7942 23.0528 55.662 23.1588 55.5108 23.2306C55.657 23.2869 55.7872 23.3776 55.8904 23.4951C55.9935 23.6126 56.0665 23.7534 56.103 23.9052V25.676C56.0873 25.9752 55.9931 26.265 55.8298 26.5166C55.6665 26.7681 55.4399 26.9726 55.1725 27.1094L57.541 29.1331C58.8099 27.9526 59.4866 27.2781 59.7403 27.1094C59.5029 26.9571 59.301 26.7558 59.1482 26.5192C59.0834 26.3004 59.0548 26.0726 59.0636 25.8446V23.8209C59.1537 23.5465 59.3321 23.3093 59.5712 23.1463C59.4168 23.0573 59.2838 22.9357 59.1815 22.79C59.0792 22.6444 59.0101 22.4782 58.979 22.3031V20.701L60.2479 19.7735L61.0938 20.701V22.4717C61.0037 22.7462 60.8253 22.9833 60.5862 23.1463C60.8253 23.3093 61.0037 23.5465 61.0938 23.8209V27.0251C61.0938 27.0251 61.8551 27.6997 63.2931 29.0488C64.2622 27.9794 65.1661 26.8531 66 25.676L65.8308 25.5073ZM1.62706 27.6997L2.89591 27.0251C3.45132 27.5954 4.11192 28.0535 4.84148 28.3742C5.52554 28.71 6.27834 28.8832 7.04082 28.8802C7.61002 28.9078 8.18017 28.8509 8.73262 28.7115C9.93527 28.3732 10.9821 27.6278 11.6933 26.6035C12.5177 25.6663 12.9953 24.476 13.0467 23.2306C13.1023 22.0241 12.7443 20.8346 12.0316 19.8578C11.6903 19.3524 11.2211 18.9458 10.6715 18.6793C10.1219 18.4128 9.51138 18.2957 8.9018 18.34C8.85581 18.3854 8.82608 18.4447 8.81721 18.5086C8.81721 18.593 8.81721 18.6773 8.73262 18.6773C9.15557 18.6773 9.49393 19.0146 9.74769 19.6891C9.91161 20.0317 9.99823 20.4058 10.0015 20.7853V25.17C10.0121 25.7499 9.89663 26.3252 9.66311 26.8565C9.32475 27.784 8.98639 28.1213 8.39426 28.2899C7.92654 28.4199 7.44143 28.4768 6.95623 28.4586C6.58653 28.4152 6.23002 28.2953 5.90954 28.1065C5.58907 27.9177 5.31171 27.6643 5.09525 27.3624C4.8682 27.0731 4.66989 26.7624 4.50312 26.4349L7.88672 24.8327V21.1226C7.94226 20.6484 8.14994 20.2048 8.47885 19.8578C8.35502 19.804 8.24502 19.7229 8.15711 19.6207C8.06921 19.5185 8.00568 19.3977 7.97131 19.2675C7.88495 19.0512 7.82805 18.8243 7.80213 18.593V13.618L8.47885 13.1121C9.32475 15.0515 9.83228 16.1476 10.0015 16.4006C10.6877 16.0259 11.3937 15.6881 12.1162 15.3887C12.1162 15.3044 11.5241 13.9553 10.3398 11.3413L4.24935 15.0515V15.5574C4.56753 15.3037 4.90716 15.078 5.26443 14.8828V16.232C5.21687 16.9901 5.21687 17.7505 5.26443 18.5086C5.26443 19.2675 5.09525 19.6891 4.58771 19.6891C3.91099 19.6891 3.57263 18.8459 3.57263 17.2438C3.56013 16.3886 3.67414 15.5362 3.91099 14.7142C4.07232 13.8885 4.41938 13.1101 4.92607 12.4375C4.9199 12.3727 4.88974 12.3126 4.84148 12.2688H4.6723C3.58532 12.7621 2.71402 13.6306 2.21919 14.7142C1.61394 15.7233 1.21169 16.8403 1.03493 18.0027C0.992828 18.3492 0.907582 18.6891 0.781162 19.0146C0.781162 19.1832 0.442802 19.3518 0.0198523 19.6048C0.307436 19.7952 0.540592 20.0567 0.696572 20.3637C0.801132 20.6622 0.858215 20.9752 0.865752 21.2912C0.793463 23.0266 1.20328 24.7482 2.05001 26.2662C2.21919 26.5192 2.30378 26.6878 2.47296 26.9408C0.950342 27.784 0.104442 28.4586 0.0198523 29.0488C-0.0512856 29.5255 0.0704246 30.0108 0.358212 30.398C0.475873 30.6012 0.650845 30.7655 0.86139 30.8704C1.07193 30.9754 1.30877 31.0163 1.54247 30.9882C2.13333 30.9267 2.69262 30.6919 3.14968 30.3136C3.59586 29.9707 4.11798 29.7394 4.6723 29.6391C4.60509 29.738 4.57512 29.8575 4.58771 29.9764C4.57852 30.0561 4.58752 30.1369 4.61402 30.2126C4.64053 30.2884 4.68387 30.3573 4.7408 30.414C4.79773 30.4707 4.86678 30.5139 4.9428 30.5404C5.01883 30.5668 5.09985 30.5758 5.17984 30.5666C5.28777 30.564 5.39274 30.5309 5.48258 30.4712C5.57241 30.4115 5.64342 30.3276 5.68738 30.2293C5.78725 30.1291 5.90123 30.0439 6.02574 29.9764C6.19492 29.9764 6.27951 30.145 6.27951 30.398C6.27951 30.9882 6.02574 31.2412 5.43361 31.2412C5.30122 31.2478 5.16937 31.2202 5.05081 31.1611C4.93225 31.102 4.83101 31.0134 4.75689 30.9039C4.75689 31.3255 5.01066 31.5785 5.5182 31.5785C6.27951 31.5785 6.61787 31.1569 6.61787 30.3136C6.86585 30.4971 7.1573 30.6133 7.46377 30.6509C7.63295 30.6509 7.71754 30.5666 7.80213 30.5666C7.88672 30.4823 7.97131 30.4823 8.14049 30.4823C8.22508 30.4823 8.30967 30.5666 8.47885 30.5666C8.57813 30.6336 8.69797 30.6635 8.81721 30.6509C9.05098 30.6349 9.28007 30.5778 9.49393 30.4823C9.74769 30.398 10.0015 30.398 10.1706 30.3136C10.3718 30.3001 10.5735 30.3288 10.7628 30.398C10.9521 30.4671 11.1538 30.4958 11.3549 30.4823C11.6116 30.496 11.8688 30.4675 12.1162 30.398V30.3136C12.1162 30.2293 12.1162 30.145 12.0316 30.145L11.4395 30.2293C11.1857 30.2293 11.0165 30.145 10.7628 30.145C10.6782 29.9764 10.509 29.9764 10.2552 29.9764C10.0486 29.993 9.84735 30.0503 9.66311 30.145C9.44589 30.2198 9.21539 30.2485 8.98639 30.2293C8.86715 30.2419 8.74731 30.212 8.64803 30.145C8.56344 30.145 8.47885 30.0607 8.30967 30.0607C8.22508 30.0607 8.0559 30.145 7.97131 30.145C7.87202 30.212 7.75218 30.2419 7.63295 30.2293C7.20577 30.1492 6.80148 29.9765 6.44869 29.7234C6.03485 29.4686 5.57511 29.2967 5.09525 29.2175C4.3145 29.3036 3.563 29.5629 2.89591 29.9764C2.9917 29.7632 3.04897 29.5348 3.06509 29.3018C3.04186 29.0179 2.92255 28.7503 2.72673 28.5429C2.61365 28.4404 2.47897 28.3645 2.33259 28.3207C2.1862 28.2769 2.03183 28.2664 1.88083 28.2899C1.72399 28.2931 1.57366 28.353 1.45788 28.4586C1.2887 28.6272 1.20411 28.7115 1.20411 28.7959C1.20411 28.9645 1.2887 29.1331 1.45788 29.1331C1.54247 29.1331 1.62706 29.0488 1.71165 28.8802C1.79624 28.7115 1.88083 28.6272 2.05001 28.6272C2.14894 28.6246 2.24698 28.6464 2.33549 28.6905C2.424 28.7346 2.50026 28.7997 2.55755 28.8802C2.6402 28.9544 2.7057 29.0456 2.74952 29.1475C2.79333 29.2494 2.81442 29.3596 2.81132 29.4704C2.81813 29.6091 2.79715 29.7478 2.7496 29.8783C2.70206 30.0089 2.6289 30.1287 2.5344 30.2307C2.43991 30.3328 2.32596 30.415 2.19923 30.4727C2.07249 30.5304 1.93549 30.5623 1.79624 30.5666C1.87024 30.5034 1.93081 30.4261 1.97439 30.3392C2.01797 30.2523 2.04368 30.1576 2.05001 30.0607C2.06159 29.9061 2.01654 29.7525 1.92322 29.6285C1.82989 29.5044 1.69462 29.4183 1.54247 29.3861H1.37329C1.19355 29.4036 1.02007 29.4612 0.865752 29.5547C0.800319 29.5535 0.735991 29.5377 0.677456 29.5085C0.61892 29.4794 0.567653 29.4375 0.527392 29.3861C0.485135 29.3239 0.46255 29.2504 0.46255 29.1753C0.46255 29.1002 0.485135 29.0267 0.527392 28.9645C0.61493 28.6903 0.757579 28.4367 0.94664 28.2193C1.1357 28.0018 1.36721 27.825 1.62706 27.6997ZM3.48804 21.1226C3.48126 20.8734 3.5723 20.6314 3.74181 20.448C3.82106 20.2931 3.9424 20.1636 4.09196 20.0741C4.24153 19.9847 4.41331 19.9389 4.58771 19.9421C5.09525 19.9421 5.34902 20.448 5.34902 21.4599V25.676L4.33394 26.1819C3.61669 24.9899 3.29135 23.6042 3.40345 22.2188C3.38952 21.8514 3.4179 21.4836 3.48804 21.1226ZM32.587 19.0146C32.1109 18.5951 31.7844 18.0329 31.6565 17.4125C31.3181 18.087 31.0644 18.5086 30.9798 18.7616C30.482 19.4113 29.9147 20.005 29.288 20.5323L29.3726 19.6048C28.914 19.4069 28.5075 19.106 28.1847 18.7257C27.8619 18.3455 27.6315 17.896 27.5116 17.4125C25.8198 19.6048 24.9739 20.701 24.9739 20.7853C25.0585 20.8696 25.0585 20.954 25.1431 21.1226L25.9044 20.3637C25.9917 20.3615 26.0778 20.3841 26.1527 20.4289C26.2276 20.4737 26.2882 20.5388 26.3273 20.6167C26.4013 20.6799 26.4619 20.7572 26.5055 20.8441C26.5491 20.931 26.5748 21.0257 26.5811 21.1226V22.3874C26.5667 22.5678 26.5043 22.7411 26.4002 22.8894C26.2961 23.0376 26.1541 23.1554 25.989 23.2306C26.1324 23.3233 26.2528 23.4475 26.3407 23.5936C26.4287 23.7398 26.482 23.904 26.4965 24.0739V26.2662C26.2871 26.5598 26.0298 26.8164 25.7352 27.0251C26.9378 27.3635 27.9847 28.1088 28.6958 29.1331L31.3181 26.2662V30.9882C31.3181 31.6628 31.6565 32.0001 32.4178 32.0001C33.0945 32.0001 33.4329 31.6628 33.4329 31.0725C33.4454 30.9994 33.4417 30.9244 33.4218 30.8528C33.402 30.7813 33.3666 30.715 33.3182 30.6586C33.2697 30.6022 33.2094 30.5572 33.1415 30.5268C33.0736 30.4963 32.9998 30.4811 32.9253 30.4823H32.7562C32.4178 30.4823 32.2486 30.6509 32.2486 31.0725C32.2486 31.1396 32.2219 31.204 32.1743 31.2514C32.1267 31.2988 32.0621 31.3255 31.9948 31.3255C31.9275 31.3255 31.863 31.2988 31.8154 31.2514C31.7678 31.204 31.7411 31.1396 31.7411 31.0725V22.2188C32.587 21.1226 33.2637 20.5323 33.9404 20.448V20.2794C33.4297 19.926 32.9737 19.4998 32.587 19.0146ZM31.2335 25.7603L30.2185 26.7721C29.8888 26.5753 29.5774 26.3496 29.288 26.0976V24.0739C29.2848 23.9 29.3307 23.7288 29.4204 23.5797C29.5102 23.4306 29.6401 23.3096 29.7955 23.2306C29.6262 23.1879 29.476 23.09 29.3687 22.9525C29.2615 22.8151 29.2033 22.6459 29.2034 22.4717V21.4599L29.9647 20.6167C30.435 21.1718 30.8593 21.7639 31.2335 22.3874V25.7603ZM38.8466 22.9777C38.8126 22.9971 38.7801 23.0191 38.7494 23.0434C38.7704 23.0436 38.7909 23.0375 38.8083 23.0257C38.8257 23.014 38.8391 22.9972 38.8466 22.9777Z"
        fill="var(--_g-garden-fill-color)"></path>
    <path
        d="M44.1759 25.9289C44.0913 25.9289 43.9221 25.5916 43.5837 25.0013V23.6522C43.5886 23.5014 43.6399 23.3557 43.7307 23.2351C43.8215 23.1144 43.9474 23.0245 44.0913 22.9776C43.7529 22.9776 43.4991 22.7246 43.5837 22.4717V15.3887C43.5945 15.2506 43.6386 15.1172 43.7123 14.9997C43.7859 14.8823 43.8869 14.7843 44.0067 14.7141C44.1759 14.5455 44.4296 14.3768 44.5988 14.2082L41.3844 11.6785C40.7271 12.2289 40.1055 12.8203 39.5234 13.4493C38.5083 14.3768 38.0854 15.1357 38.17 15.6416C38.167 15.7826 38.194 15.9227 38.2494 16.0525C38.3048 16.1822 38.3872 16.2988 38.4911 16.3945C38.5951 16.4902 38.7183 16.5627 38.8525 16.6074C38.9867 16.652 39.1289 16.6677 39.2696 16.6535C39.3686 16.6561 39.4666 16.6343 39.5551 16.5902C39.6436 16.5461 39.7199 16.481 39.7772 16.4005C39.8598 16.3263 39.9253 16.2351 39.9691 16.1332C40.013 16.0313 40.034 15.9211 40.0309 15.8103C40.0099 15.6834 39.9509 15.5659 39.8618 15.473C39.7772 15.3887 39.6926 15.3043 39.608 15.3043C39.5234 15.3043 39.4388 15.3887 39.3542 15.473C39.4015 15.617 39.458 15.7578 39.5234 15.8946C39.5234 16.1476 39.4388 16.2319 39.185 16.2319C39.1068 16.2337 39.0289 16.2197 38.9563 16.1907C38.8836 16.1617 38.8176 16.1183 38.7622 16.0631C38.7069 16.0079 38.6633 15.9421 38.6342 15.8697C38.6051 15.7972 38.5911 15.7197 38.5929 15.6416C38.6307 15.3438 38.7822 15.072 39.0159 14.8827C39.2343 14.7082 39.4329 14.5103 39.608 14.2925L40.6231 15.1357V19.6047L40.7077 19.6891C40.0773 19.4373 39.5026 19.0649 39.0159 18.5929C38.4412 18.1603 37.9036 17.6808 37.4087 17.1594C36.7634 18.0842 35.9269 18.8605 34.9555 19.4361L35.5477 20.3636V22.3874C35.3992 22.627 35.2293 22.8528 35.0401 23.0619C35.2689 23.2354 35.4447 23.469 35.5477 23.7365V25.4229C35.5467 25.6507 35.4722 25.8722 35.335 26.0545C35.1979 26.2367 35.0055 26.3701 34.7864 26.4348C35.7962 27.0921 36.6835 27.9195 37.4087 28.8801C38.3014 27.773 39.3565 26.8065 40.5385 26.0132C40.5363 26.6659 40.7117 27.307 41.046 27.8682C41.4834 28.3604 41.9647 28.812 42.4841 29.2174C43.1913 27.8783 44.1708 26.7008 45.3601 25.7602L44.9372 25.3386C44.6834 25.6759 44.4296 25.9289 44.1759 25.9289ZM40.5385 22.3874C40.5218 22.5567 40.4573 22.7178 40.3525 22.8522C40.2477 22.9865 40.1069 23.0884 39.9464 23.1462C40.1184 23.2561 40.2618 23.4051 40.3647 23.5811C40.4677 23.757 40.5272 23.9548 40.5385 24.1581C40.4962 24.5787 40.4962 25.0024 40.5385 25.4229L39.1005 26.4348C38.7911 26.1754 38.533 25.8608 38.3391 25.5072V23.7365C38.3423 23.5802 38.4025 23.4303 38.5083 23.3149C38.5617 23.2037 38.6452 23.1097 38.7494 23.0434C38.6657 23.0451 38.5675 22.9523 38.5083 22.8933C38.4025 22.7779 38.3423 22.628 38.3391 22.4717V20.448L39.185 19.6891L40.5385 20.448V22.3874ZM23.4471 0.294285H21.6301C21.7448 0.374104 21.8385 0.480308 21.9033 0.603898C21.9681 0.727488 22.0021 0.864824 22.0023 1.00427V4.9522C22.0356 5.29792 22.1594 5.62886 22.3613 5.91194C22.5632 6.19501 22.8361 6.42029 23.1527 6.56527C23.6877 6.82475 24.2749 6.95958 24.8699 6.95958C25.4649 6.95958 26.0521 6.82475 26.5871 6.56527C26.9052 6.42076 27.1788 6.19405 27.3795 5.90864C27.5801 5.62322 27.7005 5.28951 27.7282 4.94208V0.989094C27.7282 0.852027 27.7621 0.717071 27.8267 0.596073C27.8913 0.475075 27.9847 0.371736 28.0987 0.295128H27.0498C27.1642 0.371624 27.258 0.475014 27.323 0.596182C27.3879 0.71735 27.4219 0.852576 27.422 0.989937V4.96822C27.3788 5.39183 27.1704 5.78157 26.8417 6.05344C26.4553 6.31709 26.0088 6.48026 25.543 6.52812C25.0772 6.57598 24.6068 6.50701 24.1746 6.32749C23.8852 6.2181 23.6315 6.0316 23.4412 5.78834C23.2508 5.54508 23.1312 5.2544 23.0952 4.94799V1.01017C23.0954 0.870727 23.1294 0.733391 23.1942 0.609801C23.259 0.48621 23.3527 0.380007 23.4674 0.300187L23.4471 0.294285ZM31.7589 3.50609C31.7591 4.29896 32.0336 5.06751 32.5361 5.6821C33.0386 6.29669 33.7384 6.71971 34.5174 6.87979C34.82 6.93395 35.1262 6.96607 35.4335 6.97592C36.3303 6.98171 37.2052 6.69902 37.928 6.1698C37.928 6.1698 38.3552 5.90588 38.3552 5.63689L38.5236 4.36364C38.1908 5.20008 37.5601 5.88467 36.7522 6.28617C36.3242 6.50908 35.8503 6.63056 35.3675 6.64116C34.9948 6.64293 34.6287 6.54267 34.3092 6.3513C33.9897 6.15994 33.729 5.88483 33.5556 5.55594L33.515 5.48933C33.1754 4.88391 32.9971 4.20184 32.9971 3.5082C32.9971 2.81456 33.1754 2.13248 33.515 1.52706L33.5505 1.46129C33.7236 1.12895 33.9831 0.849068 34.3018 0.650895C34.6206 0.452722 34.9869 0.343539 35.3624 0.334759C35.8446 0.34213 36.3185 0.460447 36.7472 0.680477C37.4701 1.12164 38.0334 1.78084 38.3552 2.56253V1.37444C38.3552 1.10461 37.9433 0.811175 37.9433 0.811175C37.2083 0.293277 36.3327 0.0103759 35.4326 2.87327e-06C35.1247 -0.000350391 34.8176 0.0318722 34.5165 0.0961293C33.7351 0.264627 33.0351 0.694973 32.5333 1.31546C32.0316 1.93594 31.7582 2.7091 31.7589 3.50609ZM12.1586 3.51621C12.1531 2.82215 12.3282 2.13854 12.6669 1.53212L12.7033 1.46635C12.8779 1.13456 13.1386 0.855511 13.4582 0.658268C13.7777 0.461024 14.1445 0.352803 14.5203 0.344878C15.0021 0.352741 15.4756 0.471034 15.9042 0.690596C16.6297 1.13582 17.1935 1.80059 17.5131 2.58783V1.3854C17.5131 1.11558 17.1003 0.822137 17.1003 0.822137C16.3732 0.299219 15.4981 0.020177 14.6015 0.0252993C14.2937 0.0263317 13.9867 0.0585392 13.6854 0.121426C12.8771 0.295309 12.157 0.749471 11.6532 1.40306C11.1494 2.05665 10.8946 2.86725 10.9342 3.69056C10.9738 4.51387 11.3052 5.29646 11.8694 5.89901C12.4336 6.50156 13.1941 6.88497 14.0153 6.98098C14.0153 6.98098 14.3824 7.01724 14.6159 7.01724C15.5941 7.01645 16.5413 6.67527 17.294 6.0526L17.3905 5.94635C17.4801 5.82812 17.5285 5.68391 17.5283 5.53571V4.51963C17.5285 4.37885 17.5623 4.24014 17.6269 4.11493C17.6914 3.98972 17.7849 3.88162 17.8997 3.79953H16.0319C16.1467 3.88162 16.2402 3.98972 16.3047 4.11493C16.3693 4.24014 16.4031 4.37885 16.4033 4.51963V5.45307C16.4035 5.54178 16.3861 5.62966 16.3519 5.71159C16.3178 5.79352 16.2677 5.86788 16.2045 5.93033C15.9765 6.11224 15.7291 6.26861 15.4669 6.39663C15.1744 6.55353 14.8474 6.63553 14.5152 6.63526C14.176 6.63452 13.8423 6.54929 13.5444 6.3873C13.2466 6.22532 12.9941 5.99172 12.8099 5.70772C12.3896 5.05283 12.1638 4.29277 12.1586 3.51536V3.51621ZM42.6312 3.50609C42.6314 4.29884 42.9057 5.0673 43.4081 5.68187C43.9104 6.29644 44.61 6.71953 45.3889 6.87979C45.6918 6.93399 45.9982 6.96611 46.3058 6.97592C47.2024 6.98153 48.0769 6.69884 48.7995 6.1698C48.7995 6.1698 49.2267 5.90588 49.2267 5.63689L49.3951 4.36364C49.0623 5.20008 48.4316 5.88467 47.6237 6.28617C47.1957 6.50908 46.7218 6.63056 46.239 6.64116C45.8654 6.64386 45.4983 6.54403 45.1778 6.35262C44.8573 6.16121 44.5958 5.88559 44.422 5.55594L44.3814 5.48933C44.0418 4.88391 43.8635 4.20184 43.8635 3.5082C43.8635 2.81456 44.0418 2.13248 44.3814 1.52706L44.4169 1.46129C44.5912 1.12903 44.8519 0.849609 45.1717 0.6523C45.4915 0.454991 45.8587 0.347061 46.2348 0.339818C46.7169 0.34719 47.1908 0.465506 47.6195 0.685536C48.3416 1.12538 48.9048 1.78271 49.2276 2.56253V1.37444C49.2276 1.10461 48.8156 0.811175 48.8156 0.811175C48.0808 0.293439 47.2056 0.0105464 46.3058 2.87327e-06C45.9979 -0.000350391 45.6908 0.0318722 45.3897 0.0961293C44.6079 0.264291 43.9076 0.694492 43.4055 1.31501C42.9034 1.93553 42.6298 2.70886 42.6304 3.50609H42.6312ZM54.8511 0.294285H53.0341C53.1487 0.373005 53.2425 0.478272 53.3073 0.601054C53.3721 0.723835 53.4061 0.860464 53.4063 0.999212V6.28617C53.406 6.42059 53.374 6.55304 53.3128 6.67286C53.2517 6.79267 53.1632 6.89648 53.0544 6.97592H54.8308C54.7222 6.89639 54.6338 6.79254 54.5728 6.67273C54.5119 6.55293 54.48 6.42051 54.4797 6.28617V0.999212C54.4794 0.86037 54.5132 0.72356 54.5781 0.600696C54.6429 0.477832 54.737 0.372641 54.8519 0.294285"
        fill="var(--_g-garden-fill-color)"></path>
</svg>