<svg viewBox="0 0 77 32" fill="white" xmlns="http://www.w3.org/2000/svg" class="is-inversed">
    <path
        d="M18.4214 5.77517C18.0682 5.20461 17.8508 4.41139 17.8508 3.65993C17.8508 2.90846 18.041 2.21266 18.3671 1.61427L18.4078 1.54469C18.7339 0.848882 19.481 0.389649 20.2146 0.389649C20.6901 0.389649 21.1927 0.52881 21.5867 0.751468C22.3067 1.2107 22.8637 1.89259 23.1897 2.71363V1.4751C23.1897 1.19678 22.7822 0.890628 22.7822 0.890628C22.0894 0.361818 21.2199 0.0556641 20.2826 0.0556641C19.9022 0.0556641 19.3724 0.153078 19.3724 0.153078C17.7965 0.50098 16.6282 1.94825 16.6282 3.68776C16.6282 5.5386 17.9731 7.05545 19.6984 7.25027C19.6984 7.25027 20.0516 7.30594 20.2961 7.29202C21.315 7.29202 22.2388 6.91629 22.9588 6.30398L23.0539 6.19265C23.1354 6.06741 23.1897 5.92825 23.1897 5.76125V4.73146C23.1897 4.42531 23.3392 4.16091 23.5565 3.99391H21.6954C21.9128 4.16091 22.0622 4.42531 22.0622 4.73146L22.0758 5.69167C22.0758 5.8865 22.0079 6.05349 21.8856 6.17874C21.7361 6.35964 21.152 6.6658 21.152 6.6658C20.8667 6.81887 20.5407 6.91629 20.201 6.91629C19.4403 6.88846 18.761 6.44314 18.4214 5.77517Z"
        fill="var(--_g-osteria-fill-color)"></path>
    <path
        d="M37.3726 3.63209C37.3726 5.35769 38.5545 6.77713 40.1167 7.12503C40.1167 7.12503 40.6466 7.22244 41.0269 7.22244C41.9643 7.22244 42.8066 6.91629 43.513 6.38748C43.513 6.38748 43.9341 6.10915 43.9341 5.83083L44.0972 4.50881C43.6217 5.74734 42.8066 6.22048 42.3311 6.49881C41.9371 6.70755 41.4345 6.86062 40.9454 6.86062C40.2118 6.86062 39.4782 6.42923 39.1386 5.73342L39.0979 5.66384C38.7718 5.05153 38.5816 4.35573 38.5816 3.61818C38.5816 2.88063 38.7718 2.17091 39.0979 1.57251L39.1386 1.50293C39.4647 0.80713 40.2118 0.333985 40.9454 0.333985C41.4209 0.333985 41.9235 0.473146 42.3311 0.695803C43.0511 1.15503 43.6081 1.83692 43.9341 2.65797V1.41944C43.9341 1.14112 43.5266 0.834964 43.5266 0.834964C42.8202 0.306154 41.9643 0 41.0269 0C40.6466 0 40.1167 0.0974142 40.1167 0.0974142C38.5409 0.445316 37.3726 1.9065 37.3726 3.63209Z"
        fill="var(--_g-osteria-fill-color)"></path>
    <path
        d="M48.1997 3.64601C48.1997 5.3716 49.3816 6.79104 50.9439 7.13894C50.9439 7.13894 51.4737 7.23635 51.8541 7.23635C52.7914 7.23635 53.6337 6.9302 54.3401 6.40139C54.3401 6.40139 54.7613 6.12307 54.7613 5.84475L54.9243 4.52272C54.4488 5.76125 53.6337 6.2344 53.1582 6.51272C52.7643 6.72146 52.248 6.87454 51.7726 6.87454C51.039 6.87454 50.3054 6.44314 49.9658 5.74733L49.925 5.67775C49.599 5.06545 49.4088 4.36964 49.4088 3.63209C49.4088 2.88063 49.599 2.18482 49.925 1.58643L49.9658 1.51685C50.2918 0.821045 51.039 0.361817 51.7726 0.361817C52.248 0.361817 52.7507 0.500978 53.1582 0.723635C53.8783 1.18287 54.4352 1.86475 54.7613 2.6858V1.44727C54.7613 1.16895 54.3537 0.862796 54.3537 0.862796C53.6609 0.333986 52.7914 0.027832 51.8541 0.027832C51.4737 0.027832 50.9439 0.125242 50.9439 0.125242C49.368 0.459228 48.1997 1.9065 48.1997 3.64601Z"
        fill="var(--_g-osteria-fill-color)"></path>
    <path
        d="M60.3717 0.320068H58.5649C58.7823 0.487061 58.9317 0.751468 58.9317 1.04371V6.51272C58.9317 6.80496 58.7959 7.06936 58.5785 7.22244H60.3446C60.1272 7.05545 59.9914 6.80496 59.9914 6.51272V1.04371C59.9914 0.751468 60.1408 0.487061 60.3717 0.320068Z"
        fill="var(--_g-osteria-fill-color)"></path>
    <path
        d="M29.099 0.320065H27.2922C27.5096 0.487058 27.659 0.751466 27.659 1.05762V5.13503C27.727 5.88649 28.1753 6.51272 28.8002 6.80495C29.3164 7.06936 29.887 7.22244 30.4983 7.22244C31.1232 7.22244 31.7074 7.08328 32.2236 6.81887H32.2372C32.8621 6.52663 33.3104 5.88649 33.3783 5.13503V1.02979C33.3783 0.723632 33.5278 0.473145 33.7451 0.306152H32.6855C32.9029 0.473145 33.0523 0.723632 33.0523 1.02979V5.14894V5.16286C33.0115 5.60817 32.7942 6.01174 32.4817 6.29006L32.4681 6.30397C32.1149 6.59621 31.49 6.80495 30.8923 6.80495C30.5255 6.80495 30.1723 6.72146 29.8462 6.59621L29.8191 6.5823C29.2349 6.37356 28.8138 5.803 28.7458 5.14894V5.13503V1.05762C28.7187 0.751466 28.8681 0.487058 29.099 0.320065Z"
        fill="var(--_g-osteria-fill-color)"></path>
    <path
        d="M10.6371 13.8325C10.3382 13.1646 9.93066 12.594 9.42801 12.1209C8.92537 11.6477 8.32763 11.2859 7.66196 11.0215C6.98271 10.771 6.28987 10.6458 5.5427 10.6458C4.80911 10.6458 4.10268 10.771 3.42343 11.0215C2.74418 11.272 2.16002 11.6338 1.65738 12.1209C1.15473 12.594 0.74718 13.1646 0.448309 13.8325C0.149438 14.5005 0 15.2381 0 16.0591C0 16.8802 0.149438 17.6177 0.448309 18.2857C0.74718 18.9536 1.15473 19.5242 1.65738 19.9974C2.16002 20.4705 2.75776 20.8323 3.42343 21.0967C4.0891 21.3611 4.79552 21.4864 5.5427 21.4864C6.27629 21.4864 6.98271 21.3611 7.66196 21.0967C8.32763 20.8323 8.92537 20.4705 9.42801 19.9974C9.93066 19.5242 10.3382 18.9536 10.6371 18.2857C10.936 17.6177 11.099 16.8802 11.099 16.0591C11.099 15.2381 10.936 14.5005 10.6371 13.8325ZM9.08839 18.063C8.88461 18.6475 8.59933 19.1485 8.24612 19.566C7.89291 19.9695 7.48536 20.2896 7.02347 20.5122C6.56157 20.7349 6.07251 20.8462 5.55628 20.8462C5.04005 20.8462 4.55099 20.7349 4.0891 20.5122C3.62721 20.2896 3.21965 19.9695 2.86644 19.566C2.51323 19.1624 2.22795 18.6614 2.02417 18.063C1.82039 17.4785 1.71172 16.8106 1.71172 16.0591C1.71172 15.3076 1.82039 14.6397 2.02417 14.0413C2.22795 13.4429 2.51323 12.9419 2.86644 12.5383C3.21965 12.1348 3.62721 11.8147 4.0891 11.592C4.55099 11.3694 5.04005 11.2581 5.55628 11.2581C6.07251 11.2581 6.56157 11.3694 7.02347 11.592C7.48536 11.8147 7.89291 12.1348 8.24612 12.5383C8.59933 12.9419 8.88461 13.4568 9.08839 14.0413C9.29216 14.6397 9.40085 15.3076 9.40085 16.0591C9.40085 16.8106 9.29216 17.4785 9.08839 18.063ZM21.7089 16.8662C21.4508 16.4627 21.1111 16.1287 20.7172 15.8504C20.3232 15.572 19.8885 15.3494 19.4266 15.1546C18.9647 14.9597 18.53 14.7649 18.136 14.5701C17.7421 14.3753 17.416 14.1387 17.1443 13.8743C16.8862 13.6099 16.7504 13.2759 16.7504 12.8584C16.7504 12.427 16.9134 12.0513 17.2394 11.7451C17.5655 11.439 18.0138 11.272 18.6115 11.272C18.8696 11.272 19.1413 11.2998 19.413 11.3694C19.6847 11.439 19.9428 11.5503 20.201 11.6895C20.4455 11.8425 20.6764 12.0374 20.8938 12.2739C21.1112 12.5244 21.2878 12.8167 21.4372 13.1785L21.5187 13.1228L21.3693 11.439C21.0976 11.1746 20.7308 10.9658 20.2553 10.8267C19.7934 10.6875 19.2636 10.6179 18.693 10.6179C18.2447 10.6179 17.8236 10.6736 17.4296 10.7988C17.0356 10.9241 16.696 11.0911 16.3971 11.3276C16.0983 11.5642 15.8673 11.8565 15.7043 12.2183C15.5277 12.5801 15.4462 12.9976 15.4462 13.4707C15.4462 13.9995 15.582 14.4309 15.8402 14.7788C16.0983 15.1267 16.4243 15.419 16.8183 15.6695C17.2122 15.9199 17.6334 16.1426 18.0817 16.3235C18.53 16.5183 18.9647 16.7271 19.3451 16.9497C19.7391 17.1724 20.0651 17.4229 20.3232 17.7151C20.5813 18.0074 20.7172 18.3692 20.7172 18.8145C20.7172 19.4825 20.5134 19.9974 20.1059 20.3592C19.6983 20.7071 19.1685 20.888 18.5164 20.888C18.2447 20.888 17.9594 20.8462 17.6605 20.7627C17.3617 20.6792 17.0764 20.5401 16.7911 20.3453C16.5194 20.1643 16.2477 19.9139 15.9896 19.6216C15.7315 19.3155 15.5005 18.9536 15.2968 18.5223L15.1745 18.564L15.4326 20.4844C15.5956 20.6375 15.7994 20.7767 16.0303 20.9019C16.2613 21.0271 16.5194 21.1246 16.7911 21.2081C17.0628 21.2915 17.3481 21.3611 17.6334 21.4029C17.9187 21.4446 18.2039 21.4725 18.4757 21.4725C18.9647 21.4725 19.4266 21.4029 19.8613 21.2776C20.296 21.1524 20.6764 20.9576 21.0161 20.6932C21.3557 20.4288 21.6138 20.1226 21.804 19.7329C21.9942 19.3572 22.0893 18.9119 22.0893 18.4248C22.1029 17.7986 21.9806 17.2698 21.7089 16.8662ZM34.4788 12.4548C34.4652 12.3992 34.4245 12.2878 34.3701 12.1487C34.3158 12.0095 34.275 11.8425 34.2207 11.6755C34.1664 11.5085 34.1256 11.3555 34.0713 11.2163C34.0305 11.0772 34.0033 10.9937 34.0033 10.9658H26.0018C26.0018 10.9937 25.9746 11.0772 25.9338 11.2163C25.8931 11.3555 25.8387 11.5085 25.7844 11.6755C25.7301 11.8425 25.6757 11.9956 25.6214 12.1487C25.567 12.3018 25.5399 12.3992 25.5127 12.4688L25.5942 12.5523C26.1104 12.1626 26.6946 11.8843 27.3331 11.7173C27.9852 11.5503 28.6101 11.4807 29.2078 11.4807V16.0591V17.6316V18.8006C29.2078 19.1346 29.2078 19.4407 29.1942 19.7051C29.1942 19.9695 29.1807 20.2339 29.1671 20.4844C29.1535 20.7071 29.0992 20.8741 29.0041 20.9576C28.909 21.0411 28.8003 21.1106 28.6916 21.1663L28.7052 21.222C28.7595 21.2081 28.841 21.2081 28.9497 21.1941C29.072 21.1802 29.1942 21.1802 29.3165 21.1663C29.4524 21.1663 29.5746 21.1524 29.6969 21.1524H29.9686H30.2403C30.3626 21.1524 30.4848 21.1524 30.6071 21.1663C30.7429 21.1663 30.8652 21.1802 30.9739 21.1941C31.0962 21.2081 31.1777 21.2081 31.2184 21.222L31.232 21.1663C31.1369 21.1106 31.0282 21.0411 30.9331 20.9576C30.838 20.8741 30.7701 20.721 30.7701 20.4844C30.7565 20.2339 30.7565 19.9834 30.7429 19.7051C30.7429 19.4407 30.7294 19.1346 30.7294 18.8006V17.6316V16.0591V11.4807C31.3407 11.4807 31.9656 11.5642 32.6041 11.7173C33.2426 11.8704 33.8267 12.1487 34.343 12.5383L34.4788 12.4548ZM45.3876 19.6495C45.0887 19.8721 44.7355 20.0669 44.328 20.2061C43.934 20.3453 43.4993 20.4566 43.0374 20.5262C42.5755 20.5957 42.1 20.6514 41.5974 20.6653C41.0947 20.6932 40.5921 20.6932 40.0759 20.6792C40.0623 20.4288 40.0623 20.1643 40.0487 19.886C40.0487 19.6077 40.0351 19.2876 40.0351 18.9397V17.729V16.1843V16.1565C40.7823 16.1565 41.38 16.1704 41.8283 16.1843C42.2766 16.1983 42.6298 16.24 42.8744 16.2957C43.1189 16.3513 43.2819 16.4348 43.377 16.5462C43.4721 16.6575 43.54 16.7967 43.5808 16.9636L43.6623 16.9358C43.6487 16.7549 43.6216 16.6018 43.6216 16.4488C43.608 16.2957 43.608 16.1148 43.608 15.906C43.608 15.6973 43.608 15.5164 43.6216 15.3772C43.6351 15.2381 43.6487 15.0711 43.6623 14.8762L43.5808 14.8484C43.54 15.0015 43.4721 15.1267 43.377 15.2381C43.2819 15.3355 43.1189 15.419 42.8744 15.4885C42.6298 15.5442 42.2902 15.5999 41.8283 15.6138C41.38 15.6416 40.7823 15.6555 40.0351 15.6695V14.3335V13.3316C40.0351 13.0254 40.0351 12.7332 40.0487 12.4409C40.0487 12.1487 40.0623 11.8147 40.0759 11.4251C40.5378 11.3972 40.9861 11.3833 41.4072 11.3972C41.8283 11.4111 42.2359 11.4529 42.6298 11.5225C43.0238 11.606 43.3906 11.7173 43.7438 11.8843C44.097 12.0513 44.4231 12.26 44.7219 12.5383L44.8035 12.4409C44.7763 12.3713 44.7355 12.26 44.6812 12.1209C44.6268 11.9817 44.5725 11.8286 44.5182 11.6755C44.4638 11.5225 44.4095 11.3694 44.3687 11.2441C44.328 11.105 44.3144 11.0076 44.3144 10.9519H39.2472C39.1928 10.9519 39.0977 10.9519 38.9755 10.938C38.8532 10.938 38.7309 10.9241 38.6087 10.9241C38.4864 10.9241 38.3641 10.9102 38.2419 10.8962C38.1196 10.8823 38.0381 10.8823 37.9973 10.8684L37.9838 10.9519C38.0789 11.0076 38.1875 11.0772 38.2826 11.1607C38.3777 11.2441 38.4457 11.3972 38.4457 11.6199C38.4592 11.8704 38.4592 12.1209 38.4728 12.3853C38.4728 12.6497 38.4864 12.9558 38.4864 13.2898V14.4727V16.0452V17.6038V18.7727C38.4864 19.1206 38.4864 19.4268 38.4728 19.6912C38.4728 19.9556 38.4592 20.22 38.4457 20.4705C38.4321 20.6932 38.3777 20.8602 38.2826 20.9436C38.1875 21.0271 38.0789 21.0967 37.9838 21.1524L37.9973 21.2081C38.0517 21.1941 38.1332 21.1941 38.2419 21.1802C38.3641 21.1663 38.4728 21.1663 38.6087 21.1524C38.7309 21.1524 38.8532 21.1385 38.9755 21.1385H39.2472H44.8306C44.8306 21.0967 44.8578 21.0132 44.9257 20.8602C44.9936 20.721 45.0616 20.5679 45.1295 20.4148C45.211 20.2618 45.2789 20.1087 45.3469 19.9695C45.4148 19.8304 45.4555 19.7329 45.4827 19.6912L45.3876 19.6495ZM56.6904 20.9576C56.473 21.0271 56.2692 20.9854 56.0654 20.8045C55.8617 20.6375 55.6443 20.4009 55.4405 20.0948C55.2232 19.7886 55.0194 19.4546 54.802 19.065C54.5847 18.6753 54.3537 18.2996 54.1228 17.9378C53.8783 17.576 53.6337 17.242 53.3756 16.9497C53.1175 16.6575 52.8322 16.4488 52.5198 16.3374C52.9273 16.2678 53.3213 16.1565 53.6881 16.0034C54.0549 15.8504 54.3673 15.6555 54.639 15.4329C54.9107 15.1963 55.1281 14.918 55.2911 14.5979C55.4541 14.2778 55.5356 13.9021 55.5356 13.4846C55.5356 13.1367 55.4541 12.8027 55.3047 12.4966C55.1553 12.1904 54.9107 11.9121 54.5847 11.6755C54.2586 11.439 53.8511 11.2581 53.362 11.1189C52.873 10.9797 52.2752 10.9102 51.5688 10.9102H51.0933C50.8488 10.9102 50.5771 10.9102 50.2918 10.9241C50.0065 10.9241 49.7348 10.938 49.4903 10.938C49.2458 10.938 49.0963 10.9519 49.0284 10.9658L49.042 11.0354C49.1507 11.0493 49.2593 11.0911 49.3409 11.1746C49.4359 11.2581 49.4767 11.4111 49.4903 11.6338C49.5039 11.8843 49.5039 12.1348 49.5175 12.3992C49.5175 12.6636 49.531 12.9697 49.531 13.3037V14.4866V16.0591V17.6316V18.8006C49.531 19.1346 49.531 19.4407 49.5175 19.7051C49.5175 19.9695 49.5039 20.2339 49.4903 20.4844C49.4767 20.7071 49.4224 20.8741 49.3273 20.9576C49.2322 21.0411 49.1235 21.1106 49.0284 21.1663L49.042 21.222C49.0963 21.2081 49.1778 21.2081 49.3001 21.1941C49.4224 21.1802 49.5446 21.1802 49.6805 21.1663C49.8163 21.1663 49.9386 21.1524 50.0609 21.1524H50.3326H50.6043C50.7265 21.1524 50.8488 21.1524 50.9711 21.1663C51.0933 21.1663 51.2156 21.1802 51.3379 21.1941C51.4601 21.2081 51.5416 21.2081 51.5824 21.222L51.596 21.1663C51.4873 21.1106 51.3786 21.0411 51.2835 20.9576C51.1884 20.8741 51.1341 20.721 51.1205 20.4844C51.1069 20.2618 51.1069 20.0391 51.0933 19.8443C51.0933 19.6355 51.0797 19.4129 51.0797 19.1624V18.3135V17.1446V16.4209H51.4873C51.7454 16.4766 51.9628 16.6297 52.1394 16.8941C52.316 17.1585 52.4654 17.4785 52.6148 17.8404C52.7507 18.2022 52.9001 18.5918 53.036 18.9954C53.1718 19.399 53.3484 19.7747 53.5658 20.1087C53.7696 20.4566 54.0277 20.7349 54.3537 20.9576C54.6662 21.1802 55.0737 21.3055 55.5492 21.3055C55.7258 21.3055 55.916 21.2915 56.147 21.2637C56.3643 21.2359 56.5545 21.1663 56.6904 21.055V20.9576ZM53.6473 14.6675C53.4843 14.9876 53.2669 15.2381 52.9952 15.419C52.7235 15.5999 52.4247 15.7251 52.0986 15.7808C51.759 15.8504 51.4329 15.8643 51.1069 15.8225V13.2063C51.1069 12.4827 51.1205 11.8982 51.1341 11.4251C51.4737 11.4251 51.7997 11.4529 52.1258 11.5086C52.4518 11.5642 52.7507 11.6616 53.0088 11.8147C53.2669 11.9678 53.4843 12.1765 53.6473 12.4409C53.8103 12.7053 53.8918 13.0532 53.8918 13.4846C53.8918 13.9578 53.8103 14.3613 53.6473 14.6675ZM62.9395 21.1663C62.8308 21.1106 62.7221 21.0411 62.627 20.9576C62.5319 20.8741 62.4776 20.721 62.464 20.4844C62.4504 20.2339 62.4504 19.9834 62.4368 19.7051C62.4368 19.4407 62.4232 19.1346 62.4232 18.7867V17.6177V16.0591V14.4866V13.3037C62.4232 12.9558 62.4232 12.6636 62.4368 12.3992C62.4368 12.1348 62.4504 11.8843 62.464 11.6338C62.4776 11.4111 62.5319 11.2441 62.627 11.1607C62.7221 11.0772 62.8308 11.0076 62.9395 10.9519L62.9259 10.8962C62.8715 10.9102 62.79 10.9102 62.6814 10.9241C62.5591 10.938 62.4368 10.938 62.3146 10.9519C62.1787 10.9519 62.0565 10.9658 61.9478 10.9658C61.8255 10.9658 61.744 10.9797 61.6761 10.9797H61.4044C61.2821 10.9797 61.1598 10.9797 61.0376 10.9658C60.9153 10.9519 60.793 10.9519 60.6708 10.938C60.5485 10.938 60.467 10.9241 60.3991 10.8962L60.3855 10.9519C60.4806 11.0076 60.5893 11.0772 60.6844 11.1607C60.7795 11.2441 60.8474 11.4111 60.8474 11.6338C60.861 11.8843 60.861 12.1348 60.8745 12.3992C60.8745 12.6636 60.8881 12.9697 60.8881 13.3037V14.4866V16.0591V17.6177V18.7867C60.8881 19.1346 60.8881 19.4407 60.8745 19.7051C60.8745 19.9695 60.861 20.2339 60.8474 20.4844C60.8338 20.7071 60.7795 20.8741 60.6844 20.9576C60.5893 21.0411 60.4806 21.1106 60.3855 21.1663L60.3991 21.222C60.4534 21.2081 60.5485 21.2081 60.6708 21.1941C60.793 21.1802 60.9017 21.1802 61.0376 21.1663C61.1598 21.1663 61.2821 21.1524 61.4044 21.1524H61.6761C61.7304 21.1524 61.8255 21.1524 61.9478 21.1663C62.07 21.1663 62.1923 21.1802 62.3146 21.1802C62.4504 21.1802 62.5727 21.1941 62.6814 21.1941C62.8036 21.1941 62.8851 21.2081 62.9259 21.222L62.9395 21.1663ZM77 21.1663C76.8641 21.1106 76.7011 20.9993 76.5245 20.8462C76.3479 20.6792 76.2121 20.4844 76.1034 20.2618C75.9811 20.0113 75.8588 19.7747 75.7502 19.5381C75.6279 19.3015 75.5056 19.0371 75.3698 18.7449C75.2339 18.4527 75.0709 18.1048 74.8807 17.7012C74.6905 17.2976 74.4596 16.8106 74.1879 16.2122C73.9162 15.6277 73.6581 15.0571 73.4135 14.5144C73.169 13.9717 72.9381 13.4707 72.7343 12.9976C72.5305 12.5244 72.3403 12.1069 72.1773 11.7451C72.0143 11.3694 71.8784 11.0632 71.7833 10.8127H71.566C71.4709 11.0632 71.335 11.3694 71.172 11.7451C71.009 12.1209 70.8188 12.5383 70.615 12.9976C70.4113 13.4568 70.1803 13.9717 69.9222 14.5144C69.6641 15.0571 69.406 15.6277 69.1343 16.2122C68.8625 16.7967 68.6316 17.3116 68.4414 17.7151C68.2512 18.1326 68.0746 18.4944 67.9252 18.8006C67.7758 19.1067 67.6399 19.385 67.5176 19.6355C67.3954 19.8721 67.2731 20.1226 67.1508 20.3731C66.9335 20.8045 66.6482 21.0689 66.3357 21.1663L66.3493 21.222C66.4852 21.2081 66.6482 21.1802 66.8248 21.1802C67.0014 21.1802 67.1644 21.1663 67.3003 21.1663C67.4497 21.1663 67.6263 21.1663 67.8301 21.1802C68.0339 21.1941 68.1969 21.2081 68.3327 21.222L68.3463 21.1663C68.292 21.1524 68.2376 21.1246 68.1697 21.0828C68.1018 21.055 68.0339 21.0132 67.9931 20.9576C67.9388 20.9019 67.9116 20.8462 67.8844 20.7767C67.8708 20.7071 67.8844 20.6097 67.9252 20.4983C67.9931 20.3174 68.061 20.1504 68.129 19.9834C68.1969 19.8164 68.2648 19.6355 68.3463 19.4268C68.4278 19.232 68.4958 19.0232 68.5909 18.8006C68.6724 18.5779 68.781 18.3274 68.8897 18.0491H73.3592C73.6173 18.6057 73.8347 19.065 73.9977 19.4268C74.1607 19.7886 74.3237 20.1504 74.4596 20.4983C74.5003 20.6097 74.5139 20.7071 74.5003 20.7767C74.4868 20.8462 74.446 20.9158 74.4052 20.9576C74.3509 21.0132 74.2966 21.055 74.2286 21.0828C74.1607 21.1106 74.1064 21.1385 74.052 21.1663L74.0656 21.222C74.12 21.2081 74.2286 21.2081 74.3781 21.1941C74.5275 21.1802 74.6769 21.1802 74.84 21.1663C75.003 21.1663 75.1524 21.1524 75.3019 21.1524H75.6415H75.9268C76.049 21.1524 76.1713 21.1524 76.3071 21.1663C76.443 21.1663 76.5788 21.1802 76.7011 21.1941C76.8234 21.2081 76.9185 21.2081 76.9864 21.222L77 21.1663ZM69.0799 17.5064L69.6369 16.2261C69.8543 15.739 70.0309 15.3355 70.1667 15.0293C70.3026 14.7232 70.4112 14.4448 70.5063 14.2222C70.6014 13.9995 70.6965 13.7908 70.778 13.596C70.8596 13.4011 70.9546 13.1785 71.0769 12.9141C71.1992 13.1785 71.2943 13.3872 71.3622 13.5403C71.4301 13.6934 71.498 13.8743 71.5931 14.083C71.6747 14.2779 71.7969 14.5423 71.9328 14.8623C72.0686 15.1824 72.2724 15.6277 72.5305 16.2122L73.1011 17.5203H69.0799V17.5064Z"
        fill="var(--_g-osteria-fill-color)"></path>
    <path
        d="M23.0809 30.2256C22.7549 30.2256 22.13 31.1023 22.13 31.5337C22.13 31.6589 22.1843 31.7424 22.3338 31.7424C22.687 31.7424 23.2304 30.7544 23.2304 30.4065C23.2168 30.2813 23.1625 30.2256 23.0809 30.2256ZM23.2032 31.3945C23.1081 31.6589 23.1353 31.7007 23.2032 31.7007C23.2983 31.7007 23.6244 31.3667 23.6651 31.3667C23.6787 31.3667 23.6787 31.3806 23.6787 31.3945C23.6379 31.478 23.1896 31.979 22.9859 31.979C22.8228 31.979 22.8228 31.812 22.9587 31.4363L23.0674 31.144C23.0674 31.1301 23.0266 31.1162 23.0266 31.1301C22.7549 31.6868 22.456 31.9929 22.1436 31.9929C21.9534 31.9929 21.804 31.8399 21.804 31.6172C21.804 31.0884 22.4968 30.156 23.0538 30.156C23.176 30.156 23.2576 30.2256 23.2847 30.3369C23.4342 29.9751 23.5564 29.6411 23.7466 29.0845C23.8145 28.8896 23.733 28.7922 23.4342 28.7922C23.3934 28.7922 23.407 28.7505 23.4206 28.7505C23.6379 28.7227 24.0998 28.6948 24.1406 28.6948C24.1678 28.6948 24.1813 28.7227 24.1678 28.7783C23.7466 29.8499 23.3934 30.824 23.2032 31.3945Z"
        fill="var(--_g-osteria-fill-color)"></path>
    <path
        d="M25.1459 30.184C24.7927 30.184 24.2629 31.1163 24.2629 31.506C24.2629 31.6591 24.3172 31.7286 24.4123 31.7286C24.4938 31.7286 24.6025 31.6591 24.7248 31.5338C25.0101 31.1859 25.2954 30.4901 25.2954 30.3509C25.3089 30.2675 25.2546 30.184 25.1459 30.184ZM25.2138 31.4086C25.1323 31.6451 25.1595 31.7008 25.2274 31.7008C25.3497 31.7008 25.5671 31.3947 25.6078 31.3947C25.6214 31.3947 25.6214 31.4086 25.6214 31.4225C25.4855 31.6869 25.1867 31.9791 25.0101 31.9791C24.9286 31.9791 24.8878 31.9374 24.8878 31.8539C24.8878 31.7704 24.915 31.673 24.9557 31.5338L25.0372 31.2555C25.0372 31.2416 24.9965 31.2277 24.9965 31.2416C24.7384 31.7008 24.4803 31.9791 24.2493 31.9791C24.0999 31.9791 23.9504 31.8539 23.9504 31.6452C23.9504 31.0328 24.6433 30.1422 25.1323 30.1422C25.2138 30.1422 25.3089 30.17 25.3497 30.1979C25.3769 30.2118 25.3769 30.2257 25.3905 30.1979C25.4448 30.1283 25.4991 30.0448 25.5263 30.003C25.5535 29.9613 25.7301 30.017 25.7165 30.0448L25.2138 31.4086Z"
        fill="var(--_g-osteria-fill-color)"></path>
    <path
        d="M30.5664 29.001C30.4305 29.0984 30.3898 29.1819 30.2539 30.4065C30.1045 31.6868 30.1045 31.7981 30.1317 31.8259C30.186 31.8538 30.2947 31.8538 30.4034 31.8816C30.4305 31.8955 30.4305 31.9373 30.4034 31.9373C30.2947 31.9234 30.1045 31.9234 29.8871 31.9234C29.6562 31.9234 29.466 31.9234 29.3573 31.9373C29.3301 31.9373 29.3166 31.8955 29.3573 31.8816C29.466 31.8538 29.5883 31.8538 29.6426 31.8259C29.7377 31.7703 29.7784 31.6729 29.9415 30.3926C29.9822 30.0029 30.0501 29.6689 30.0773 29.4045C30.0773 29.3906 30.0501 29.3906 30.0366 29.3906C29.6834 29.9612 29.0041 31.0606 28.4607 31.979C28.4471 32.0068 28.3792 32.0068 28.3792 31.979C28.3113 31.0188 28.2162 29.9334 28.1482 29.4185C28.1482 29.4045 28.1211 29.4045 28.1075 29.4185C27.9988 29.6829 27.863 30.0029 27.7135 30.4065C27.2109 31.7007 27.1973 31.7981 27.238 31.8259C27.2788 31.8538 27.3739 31.8538 27.469 31.8816C27.4962 31.8955 27.4826 31.9373 27.469 31.9373C27.3603 31.9234 27.2516 31.9234 27.0343 31.9234C26.8033 31.9234 26.6946 31.9234 26.5724 31.9373C26.5452 31.9373 26.5452 31.8955 26.5724 31.8816C26.6811 31.8538 26.8169 31.8538 26.8848 31.8259C27.0207 31.7703 27.0614 31.6868 27.5777 30.4065C28.0667 29.1958 28.0531 29.0984 27.9716 29.0149C27.9309 28.9731 27.8086 28.9453 27.6592 28.9314C27.632 28.9314 27.6456 28.8757 27.6592 28.8757C27.7407 28.8896 28.0124 28.9036 28.1754 28.9036C28.3248 28.9036 28.3384 28.8896 28.4199 28.8896C28.4335 28.8896 28.4471 28.9036 28.4471 28.9175C28.4743 29.3767 28.5694 30.5596 28.6373 31.4224C28.6373 31.4363 28.6645 31.4363 28.6645 31.4224C29.14 30.6709 29.7785 29.5994 30.1588 28.9314C30.1724 28.9175 30.1724 28.9036 30.186 28.9036C30.2675 28.9175 30.3219 28.9175 30.4713 28.9175C30.6343 28.9175 30.7837 28.9036 30.8788 28.8896C30.906 28.8896 30.9196 28.9453 30.8788 28.9453C30.7158 28.9453 30.5936 28.9731 30.5664 29.001Z"
        fill="var(--_g-osteria-fill-color)"></path>
    <path
        d="M32.0335 30.184C31.6803 30.184 31.1504 31.1163 31.1504 31.506C31.1504 31.6591 31.2048 31.7286 31.2999 31.7286C31.3814 31.7286 31.5036 31.6591 31.6123 31.5338C31.8976 31.1859 32.1829 30.4901 32.1829 30.3509C32.1965 30.2675 32.1421 30.184 32.0335 30.184ZM32.115 31.4086C32.0335 31.6451 32.0606 31.7008 32.1286 31.7008C32.2508 31.7008 32.4682 31.3947 32.5089 31.3947C32.5225 31.3947 32.5225 31.4086 32.5225 31.4225C32.3867 31.6869 32.0878 31.9791 31.9112 31.9791C31.8297 31.9791 31.7889 31.9374 31.7889 31.8539C31.7889 31.7704 31.8161 31.673 31.8569 31.5338L31.9384 31.2555C31.9384 31.2416 31.8976 31.2277 31.8976 31.2416C31.6395 31.7008 31.3814 31.9791 31.1504 31.9791C31.001 31.9791 30.8516 31.8539 30.8516 31.6452C30.8516 31.0328 31.5444 30.1422 32.0335 30.1422C32.115 30.1422 32.2101 30.17 32.2508 30.1979C32.278 30.2118 32.278 30.2257 32.2916 30.1979C32.3459 30.1283 32.4003 30.0448 32.4274 30.003C32.4546 29.9613 32.6312 30.017 32.6176 30.0448L32.115 31.4086Z"
        fill="var(--_g-osteria-fill-color)"></path>
    <path
        d="M33.9217 30.49C33.7451 30.49 33.7587 30.1978 33.5549 30.1978C33.4462 30.1978 33.324 30.3369 33.324 30.4482C33.324 30.6848 33.7315 31.158 33.7315 31.4641C33.7315 31.7285 33.487 31.979 33.1474 31.979C32.8893 31.979 32.7126 31.7842 32.7126 31.6729C32.7126 31.5894 32.767 31.5198 32.8621 31.5198C33.0794 31.5198 32.9979 31.8955 33.2968 31.8955C33.4191 31.8955 33.5142 31.7285 33.5142 31.6033C33.5142 31.3528 33.1338 30.991 33.1338 30.6431C33.1338 30.3647 33.4055 30.0864 33.7179 30.0864C33.8945 30.0864 34.0712 30.2256 34.0712 30.3508C34.0712 30.4065 34.0032 30.49 33.9217 30.49Z"
        fill="var(--_g-osteria-fill-color)"></path>
    <path
        d="M35.2667 30.49C35.0901 30.49 35.1037 30.1978 34.8999 30.1978C34.7912 30.1978 34.6689 30.3369 34.6689 30.4482C34.6689 30.6848 35.0765 31.158 35.0765 31.4641C35.0765 31.7285 34.832 31.979 34.4923 31.979C34.2342 31.979 34.0576 31.7842 34.0576 31.6729C34.0576 31.5894 34.112 31.5198 34.2071 31.5198C34.4244 31.5198 34.3429 31.8955 34.6418 31.8955C34.764 31.8955 34.8591 31.7285 34.8591 31.6033C34.8591 31.3528 34.4788 30.991 34.4788 30.6431C34.4788 30.3647 34.7505 30.0864 35.0629 30.0864C35.2395 30.0864 35.4161 30.2256 35.4161 30.3508C35.4161 30.4065 35.3482 30.49 35.2667 30.49Z"
        fill="var(--_g-osteria-fill-color)"></path>
    <path
        d="M36.4895 29.5576C36.3944 29.5576 36.3537 29.488 36.3537 29.4185C36.3537 29.3071 36.4488 29.1541 36.5846 29.1541C36.6661 29.1541 36.7205 29.2236 36.7205 29.2932C36.7205 29.4045 36.6254 29.5576 36.4895 29.5576ZM35.7967 31.9651C35.6201 31.9651 35.5929 31.7981 35.688 31.5755L36.1227 30.6013C36.2178 30.4065 36.2042 30.3091 36.1091 30.3091C36.014 30.3091 35.8103 30.5039 35.688 30.6848C35.6744 30.6987 35.6608 30.6848 35.6608 30.6709C35.7423 30.4204 36.0956 30.0725 36.3265 30.0725C36.5574 30.0725 36.5574 30.3369 36.3537 30.7544L36.014 31.4502C35.9189 31.645 35.9597 31.6868 36.0412 31.6868C36.1363 31.6868 36.4488 31.3806 36.4895 31.3806C36.5031 31.3806 36.5167 31.3945 36.5031 31.4085C36.4759 31.492 36.0276 31.9651 35.7967 31.9651Z"
        fill="var(--_g-osteria-fill-color)"></path>
    <path
        d="M38.8125 31.9651C38.663 31.9651 38.6087 31.8538 38.7038 31.5755L39.0298 30.7127C39.1657 30.3648 39.1385 30.3091 39.0842 30.3091C38.894 30.3091 38.5272 30.8936 37.9838 31.9094C37.9702 31.9373 37.8887 31.9373 37.8344 31.9373C37.7664 31.9373 37.7121 31.9233 37.7121 31.9094L38.2012 30.5874C38.2555 30.4204 38.3098 30.2952 38.2283 30.2952C38.0246 30.2952 37.6713 30.8796 37.1279 31.9094C37.1144 31.9373 37.0464 31.9373 36.9785 31.9373C36.9106 31.9373 36.8427 31.9233 36.8562 31.9094L37.3317 30.6013C37.3996 30.4065 37.4132 30.3091 37.3453 30.3091C37.2094 30.3091 37.06 30.4343 36.897 30.6709C36.8834 30.6848 36.8698 30.6709 36.8698 30.657C36.9513 30.4065 37.3045 30.0725 37.5219 30.0725C37.5898 30.0725 37.6578 30.156 37.6578 30.2534C37.6578 30.4622 37.5219 30.8518 37.2502 31.4919C37.2502 31.5059 37.291 31.5198 37.291 31.5059C37.8208 30.4761 38.1197 30.0308 38.3778 30.0308C38.4593 30.0308 38.5272 30.1143 38.5272 30.2395C38.5272 30.4622 38.3914 30.8379 38.1061 31.478C38.0925 31.492 38.1468 31.5059 38.1468 31.4919C38.6631 30.4622 39.0163 30.0586 39.2472 30.0586C39.5053 30.0586 39.4374 30.3787 39.3015 30.7405L39.0298 31.4363C38.9483 31.6311 38.9891 31.6729 39.057 31.6729C39.1385 31.6729 39.4646 31.3667 39.5053 31.3667C39.5189 31.3667 39.5189 31.3806 39.5189 31.3945C39.4781 31.4919 39.0434 31.9651 38.8125 31.9651Z"
        fill="var(--_g-osteria-fill-color)"></path>
    <path
        d="M40.7959 30.1421C40.4971 30.1421 40.1031 31.1301 40.1031 31.5894C40.1031 31.7842 40.1846 31.8955 40.334 31.8955C40.6329 31.8955 41.0405 30.9075 41.0405 30.4482C41.0269 30.2534 40.9454 30.1421 40.7959 30.1421ZM40.3069 31.9651C40.0352 31.9651 39.845 31.7703 39.845 31.3667C39.845 30.8657 40.2389 30.0586 40.8231 30.0586C41.0948 30.0586 41.285 30.2534 41.285 30.657C41.285 31.1719 40.891 31.9651 40.3069 31.9651Z"
        fill="var(--_g-osteria-fill-color)"></path>
    <path
        d="M44.1786 28.9731C44.0564 28.9731 43.9749 29.001 43.9205 29.0288C43.8798 29.0427 43.839 29.1123 43.5402 30.1699C43.5266 30.1978 43.5266 30.2256 43.5537 30.2256C43.6081 30.2395 43.6217 30.2395 43.8662 30.2395C44.4368 30.2395 44.6813 29.7664 44.6813 29.3906C44.6813 29.168 44.5454 28.9731 44.1786 28.9731ZM43.839 30.3508C43.5945 30.3508 43.5809 30.3508 43.5266 30.3648C43.4994 30.3787 43.4858 30.3926 43.4722 30.4204C43.1734 31.478 43.1326 31.6868 43.1869 31.7424C43.2413 31.812 43.3228 31.8259 43.6217 31.8259C44.1379 31.8259 44.5319 31.4085 44.5319 30.9353C44.5319 30.6152 44.2602 30.3508 43.839 30.3508ZM44.1922 30.2813C44.1787 30.2813 44.1651 30.3091 44.1786 30.323C44.7085 30.4065 44.8987 30.7127 44.8987 31.0049C44.8987 31.4641 44.3824 31.9373 43.5537 31.9373C43.4451 31.9373 43.2956 31.9234 43.0783 31.9234C42.8473 31.9234 42.5077 31.9234 42.399 31.9373C42.3718 31.9373 42.3583 31.8955 42.399 31.8816C42.5077 31.8538 42.6435 31.8538 42.6979 31.8259C42.7386 31.812 42.793 31.6868 43.1462 30.4065C43.4994 29.1123 43.5266 29.001 43.4858 28.9871C43.4451 28.9592 43.3228 28.9592 43.2277 28.9314C43.2005 28.9175 43.2005 28.8757 43.2277 28.8757C43.3364 28.8896 43.6624 28.9036 43.8798 28.9036C44.0971 28.9036 44.1651 28.8757 44.2737 28.8757C44.7221 28.8757 45.0209 29.1401 45.0209 29.4741C45.0345 29.822 44.7221 30.156 44.1922 30.2813Z"
        fill="var(--_g-osteria-fill-color)"></path>
    <path
        d="M46.2979 30.1421C45.999 30.1421 45.605 31.1301 45.605 31.5894C45.605 31.7842 45.6865 31.8955 45.836 31.8955C46.1349 31.8955 46.5424 30.9075 46.5424 30.4482C46.5288 30.2534 46.4473 30.1421 46.2979 30.1421ZM45.8088 31.9651C45.5371 31.9651 45.3469 31.7703 45.3469 31.3667C45.3469 30.8657 45.7409 30.0586 46.325 30.0586C46.5967 30.0586 46.7869 30.2534 46.7869 30.657C46.7869 31.1719 46.393 31.9651 45.8088 31.9651Z"
        fill="var(--_g-osteria-fill-color)"></path>
    <path
        d="M48.2948 30.2954C48.1453 30.2815 48.1453 30.2815 47.8872 30.2815C47.7378 30.6711 47.5612 31.1582 47.4525 31.4783C47.3846 31.6592 47.4389 31.7288 47.4932 31.7288C47.6427 31.7288 47.9551 31.3113 47.9959 31.3113C48.0095 31.3113 48.0231 31.3252 48.0095 31.3391C47.8736 31.5479 47.5612 31.9793 47.2895 31.9793C47.1944 31.9793 47.0178 31.8818 47.14 31.5896C47.2895 31.186 47.4661 30.6851 47.6019 30.2815C47.4389 30.2815 47.3982 30.2954 47.2759 30.2954C47.2351 30.2954 47.2351 30.1702 47.2895 30.1702C47.4117 30.1841 47.4797 30.1841 47.6427 30.1841C47.697 30.031 47.7378 29.9058 47.7649 29.8084C47.7785 29.7805 47.8057 29.7805 47.8193 29.7805C47.8872 29.7805 48.0774 29.8083 48.0638 29.8501C48.0366 29.9336 47.9823 30.0449 47.928 30.1702C48.1725 30.1702 48.1725 30.1702 48.3083 30.1563C48.3491 30.1702 48.3491 30.2954 48.2948 30.2954Z"
        fill="var(--_g-osteria-fill-color)"></path>
    <path
        d="M49.6805 30.2954C49.5311 30.2815 49.5311 30.2815 49.273 30.2815C49.1235 30.6711 48.9469 31.1582 48.8382 31.4783C48.7703 31.6592 48.8247 31.7288 48.879 31.7288C49.0284 31.7288 49.3545 31.3113 49.3816 31.3113C49.3952 31.3113 49.4088 31.3252 49.3952 31.3391C49.2594 31.5479 48.9469 31.9793 48.6752 31.9793C48.5801 31.9793 48.4035 31.8818 48.5258 31.5896C48.6752 31.186 48.8518 30.6851 48.9877 30.2815C48.8247 30.2815 48.7839 30.2954 48.6616 30.2954C48.6209 30.2954 48.6209 30.1702 48.6752 30.1702C48.7975 30.1841 48.8654 30.1841 49.0284 30.1841C49.0828 30.031 49.1235 29.9058 49.1507 29.8084C49.1643 29.7805 49.1914 29.7805 49.205 29.7805C49.273 29.7805 49.4632 29.8083 49.4496 29.8501C49.4224 29.9336 49.3681 30.0449 49.3137 30.1702C49.5582 30.1702 49.5447 30.1702 49.6941 30.1563C49.7348 30.1702 49.7348 30.2954 49.6805 30.2954Z"
        fill="var(--_g-osteria-fill-color)"></path>
    <path
        d="M51.1342 31.4363C51.0527 31.6589 51.0934 31.6868 51.1478 31.6868C51.2429 31.6868 51.5417 31.3806 51.5825 31.3806C51.5961 31.3806 51.5961 31.3945 51.5961 31.4085C51.5553 31.4919 51.1478 31.9651 50.9168 31.9651C50.7266 31.9651 50.7266 31.7424 51.1478 30.7961C51.1478 30.7822 51.1206 30.7683 51.107 30.7822C50.781 31.3528 50.4277 31.9651 50.0745 31.9651C49.9523 31.9651 49.8572 31.9094 49.8572 31.7564C49.8572 31.6589 49.8979 31.5198 49.993 31.2971L50.3055 30.6013C50.4006 30.4065 50.4006 30.3091 50.3055 30.3091C50.1696 30.3091 50.0066 30.5039 49.9387 30.5457C49.9251 30.5457 49.9115 30.5317 49.9115 30.5178C50.0609 30.3369 50.2647 30.0864 50.4957 30.0864C50.6587 30.0864 50.713 30.2813 50.5772 30.6013L50.2511 31.3528C50.1289 31.6589 50.1425 31.7564 50.2376 31.7564C50.4413 31.7564 50.9032 31.158 51.3379 30.1282C51.3515 30.1143 51.3787 30.1143 51.4059 30.1143C51.4874 30.1143 51.6096 30.1421 51.5961 30.1838L51.1342 31.4363Z"
        fill="var(--_g-osteria-fill-color)"></path>
    <path
        d="M53.3078 30.5317C53.1312 30.5317 53.2127 30.3091 53.104 30.3091C52.9817 30.3091 52.7915 30.5596 52.221 31.9094C52.2074 31.9373 52.1259 31.9512 52.0715 31.9512C52.0036 31.9512 51.9357 31.9512 51.9493 31.9094C52.2074 31.1858 52.384 30.6292 52.384 30.4761C52.384 30.3926 52.3568 30.3508 52.3161 30.3508C52.1802 30.3508 52.0172 30.6709 51.99 30.6848C51.9764 30.6848 51.9628 30.6848 51.9628 30.6709C52.0715 30.4343 52.2889 30.0586 52.5062 30.0586C52.6285 30.0586 52.6557 30.1978 52.6557 30.323C52.6557 30.49 52.5878 30.7405 52.4383 31.1997C52.4247 31.2136 52.4791 31.2275 52.4791 31.2136C52.8051 30.4065 53.0496 30.0308 53.2942 30.0308C53.43 30.0308 53.5115 30.1421 53.5115 30.2673C53.498 30.4204 53.4164 30.5317 53.3078 30.5317Z"
        fill="var(--_g-osteria-fill-color)"></path>
    <path
        d="M54.612 30.184C54.2588 30.184 53.729 31.1163 53.729 31.506C53.729 31.6591 53.7833 31.7286 53.8784 31.7286C53.9599 31.7286 54.0686 31.6591 54.1909 31.5338C54.4761 31.1859 54.7614 30.4901 54.7614 30.3509C54.775 30.2675 54.7207 30.184 54.612 30.184ZM54.6799 31.4086C54.5984 31.6451 54.6256 31.7008 54.6935 31.7008C54.8158 31.7008 55.0331 31.3947 55.0739 31.3947C55.0875 31.3947 55.0875 31.4086 55.0875 31.4225C54.9516 31.6869 54.6527 31.9791 54.4761 31.9791C54.3946 31.9791 54.3539 31.9374 54.3539 31.8539C54.3539 31.7704 54.3675 31.673 54.4218 31.5338L54.5033 31.2555C54.5033 31.2416 54.4626 31.2277 54.4626 31.2416C54.2044 31.7008 53.9463 31.9791 53.7154 31.9791C53.5659 31.9791 53.4165 31.8539 53.4165 31.6452C53.4165 31.0328 54.1093 30.1422 54.5984 30.1422C54.6799 30.1422 54.775 30.17 54.8158 30.1979C54.8429 30.2118 54.8429 30.2257 54.8565 30.1979C54.9109 30.1283 54.9652 30.0448 54.9924 30.003C55.0195 29.9613 55.1961 30.017 55.1826 30.0448L54.6799 31.4086Z"
        fill="var(--_g-osteria-fill-color)"></path>
</svg>